<svg version="1.1" xmlns="http://www.w3.org/2000/svg" viewBox="0 0 801.0001831054688 502.1666717529297" width="801.0001831054688" height="502.1666717529297">
  <!-- svg-source:excalidraw -->
  
  <defs>
    <style class="style-fonts">
      @font-face {
        font-family: "Virgil";
        src: url("https://excalidraw.com/Virgil.woff2");
      }
      @font-face {
        font-family: "Cascadia";
        src: url("https://excalidraw.com/Cascadia.woff2");
      }
      @font-face {
        font-family: "Assistant";
        src: url("https://excalidraw.com/Assistant-Regular.woff2");
      }
    </style>
    
  </defs>
  <rect x="0" y="0" width="801.0001831054688" height="502.1666717529297" fill="#fdf8f6"></rect><g stroke-linecap="round" transform="translate(87.00009155273438 257.5) rotate(0 19.666656494140625 18.333343505859375)"><path d="M0.93 19.36 C0.93 19.36, 0.93 19.36, 0.93 19.36 M0.93 19.36 C0.93 19.36, 0.93 19.36, 0.93 19.36 M6.32 25.37 C12.21 19.12, 16.38 14.85, 24.03 4.99 M6.32 25.37 C11.82 19.1, 17.53 14, 24.03 4.99 M13.01 29.86 C16.64 24.29, 22.38 18.19, 30.72 9.48 M13.01 29.86 C19.72 22.3, 26.02 16.32, 30.72 9.48 M19.05 35.11 C26.9 26.82, 30.32 22.18, 36.11 15.49 M19.05 35.11 C24.05 28.05, 29.19 21.91, 36.11 15.49" stroke="#f3f0ff" stroke-width="1" fill="none"></path><path d="M25 4.75 C27.5 8.13, 31.41 10.31, 34.33 14.25 M25 4.75 C27.83 7.47, 31 11.02, 34.33 14.25 M34.33 14.25 C40.73 19.97, 38.13 19.02, 34.33 23.75 M34.33 14.25 C37.83 17.79, 41.53 18.37, 34.33 23.75 M34.33 23.75 C30.09 26.61, 28.94 29.82, 25 31.92 M34.33 23.75 C31.09 26.39, 27.63 29.23, 25 31.92 M25 31.92 C21.01 37.16, 18.03 35.45, 15 31.92 M25 31.92 C19.99 37.88, 17.93 35.12, 15 31.92 M15 31.92 C11.57 28.43, 7.08 25.66, 5 23.75 M15 31.92 C11.31 28.38, 7.38 25.69, 5 23.75 M5 23.75 C-1.91 19.24, 1.5 20.32, 5 14.25 M5 23.75 C1.76 20.47, 0.45 18.62, 5 14.25 M5 14.25 C7.75 12.04, 11.38 9.12, 15 4.75 M5 14.25 C8.82 10.84, 13.19 6.8, 15 4.75 M15 4.75 C19.22 -0.21, 19.44 0.89, 25 4.75 M15 4.75 C20.02 0.87, 20.56 -0.35, 25 4.75" stroke="#1e1e1e" stroke-width="2" fill="none"></path></g><g transform="translate(93.08340454101562 251.5) rotate(0 12.916656494140625 25.83331298828125)"><text x="12.916656494140621" y="36.20797148437498" font-family="Virgil, Segoe UI Emoji" font-size="41.333300781249974px" fill="#1e1e1e" text-anchor="middle" style="white-space: pre;" direction="ltr" dominant-baseline="alphabetic">+</text></g><g stroke-linecap="round" transform="translate(19.000091552734375 90.83331298828125) rotate(0 93.66665649414062 58.66667175292969)"><path d="M29.33 0 C78.95 -0.25, 122.94 -1.93, 158 0 C177.89 1.08, 185.53 8.61, 187.33 29.33 C184.8 49.31, 185.9 69.91, 187.33 88 C189.33 106.64, 179.47 115.45, 158 117.33 C110.67 113.06, 73.57 114.24, 29.33 117.33 C10.95 119.76, 1.84 106.34, 0 88 C1.82 67.81, 1.36 48.95, 0 29.33 C0.89 13.12, 8.9 -3.18, 29.33 0" stroke="none" stroke-width="0" fill="#f3f0ff"></path><path d="M29.33 0 C66.17 0.92, 103.47 1.23, 158 0 M29.33 0 C63.88 1.11, 97.31 1.22, 158 0 M158 0 C179.08 0.74, 187.99 11.49, 187.33 29.33 M158 0 C179.16 -1.14, 188.41 10.37, 187.33 29.33 M187.33 29.33 C188.42 53.01, 186.42 73.33, 187.33 88 M187.33 29.33 C186.49 50.49, 188 70.13, 187.33 88 M187.33 88 C185.73 106.2, 178.2 115.92, 158 117.33 M187.33 88 C185.83 106.01, 178.62 119.57, 158 117.33 M158 117.33 C127.9 116.82, 96.49 118.17, 29.33 117.33 M158 117.33 C120.15 117.61, 83.96 116.07, 29.33 117.33 M29.33 117.33 C7.99 118.27, 1.92 106.29, 0 88 M29.33 117.33 C11.59 119.56, 1.56 109.05, 0 88 M0 88 C0.53 70.02, -0.39 52.07, 0 29.33 M0 88 C-0.86 70.52, 0.49 53.75, 0 29.33 M0 29.33 C0.41 11.02, 8.41 -1.83, 29.33 0 M0 29.33 C-0.98 7.6, 10.28 2.14, 29.33 0" stroke="#1e1e1e" stroke-width="2" fill="none"></path></g><g transform="translate(43.666595458984375 128.83334350585938) rotate(0 71.81993865966797 12.5)"><text x="0" y="17.52" font-family="Virgil, Segoe UI Emoji" font-size="20px" fill="#1e1e1e" text-anchor="start" style="white-space: pre;" direction="ltr" dominant-baseline="alphabetic">Polynomial IOP</text></g><g transform="translate(91.58942413330078 172.66665649414062) rotate(0 18.75 9.599999999999994)"><text x="18.75" y="15.45" font-family="Cascadia, Segoe UI Emoji" font-size="16px" fill="#868e96" text-anchor="middle" style="white-space: pre;" direction="ltr" dominant-baseline="alphabetic">PIOP</text></g><g stroke-linecap="round" transform="translate(10 350.16664123535156) rotate(0 92.66665649414062 71.00001525878906)"><path d="M32 0 C63.7 0.73, 91.3 0.05, 153.33 0 C171.79 0.52, 181.91 9.07, 185.33 32 C181.98 52.91, 181.81 75.07, 185.33 110 C185.94 130.79, 173.38 141, 153.33 142 C122.45 142.83, 86.02 140.94, 32 142 C13.12 140.31, 0.62 129.41, 0 110 C3.69 80.13, 2.99 56.54, 0 32 C0 9.02, 7.35 2.69, 32 0" stroke="none" stroke-width="0" fill="#f3f0ff"></path><path d="M32 0 C72.77 1.44, 111.59 1.87, 153.33 0 M32 0 C61.02 -1.81, 90.8 -0.24, 153.33 0 M153.33 0 C173.27 1.15, 187.15 12.5, 185.33 32 M153.33 0 C174.92 -0.96, 183.3 11.46, 185.33 32 M185.33 32 C183.67 61.24, 184.9 92.51, 185.33 110 M185.33 32 C185.9 59.33, 185.37 85.58, 185.33 110 M185.33 110 C185.59 130.74, 174.11 143.35, 153.33 142 M185.33 110 C186.96 133.59, 175.29 143.42, 153.33 142 M153.33 142 C126.47 139.77, 99.54 142.84, 32 142 M153.33 142 C127.31 140.96, 100.93 141.28, 32 142 M32 142 C12.38 141.11, 1.99 129.59, 0 110 M32 142 C11.69 143.53, -0.82 132.72, 0 110 M0 110 C-2.29 83.78, 1.53 56.88, 0 32 M0 110 C1.07 78.26, 0.49 46.89, 0 32 M0 32 C0.97 12.54, 9.64 -0.16, 32 0 M0 32 C-0.18 11.86, 12.43 1.91, 32 0" stroke="#1e1e1e" stroke-width="2" fill="none"></path></g><g transform="translate(46.666656494140625 366.16661071777344) rotate(0 54.599945068359375 37.5)"><text x="54.599945068359375" y="17.52" font-family="Virgil, Segoe UI Emoji" font-size="20px" fill="#1e1e1e" text-anchor="middle" style="white-space: pre;" direction="ltr" dominant-baseline="alphabetic">Polynomial</text><text x="54.599945068359375" y="42.519999999999996" font-family="Virgil, Segoe UI Emoji" font-size="20px" fill="#1e1e1e" text-anchor="middle" style="white-space: pre;" direction="ltr" dominant-baseline="alphabetic">Commitment</text><text x="54.599945068359375" y="67.52" font-family="Virgil, Segoe UI Emoji" font-size="20px" fill="#1e1e1e" text-anchor="middle" style="white-space: pre;" direction="ltr" dominant-baseline="alphabetic">Scheme</text></g><g transform="translate(85.60427856445312 455.9) rotate(0 14.0625 9.600000000000023)"><text x="14.0625" y="15.45" font-family="Cascadia, Segoe UI Emoji" font-size="16px" fill="#868e96" text-anchor="middle" style="white-space: pre;" direction="ltr" dominant-baseline="alphabetic">PCS</text></g><g stroke-linecap="round"><g transform="translate(107.55219757732334 346.16668701171875) rotate(0 0.8828825370613345 -21.000030517578125)"><path d="M-0.47 0.15 C-0.17 -6.92, 1.16 -35.49, 1.54 -42.43 M0.29 -0.24 C0.51 -7.26, 0.8 -34.95, 0.99 -41.95" stroke="#868e96" stroke-width="2" fill="none"></path></g><g transform="translate(107.55219757732334 346.16668701171875) rotate(0 0.8828825370613345 -21.000030517578125)"><path d="M7.82 -22.07 C6.35 -27.59, 3.55 -32.21, 0.99 -41.95 M7.82 -22.07 C4.97 -29.85, 2.03 -37.55, 0.99 -41.95" stroke="#868e96" stroke-width="2" fill="none"></path></g><g transform="translate(107.55219757732334 346.16668701171875) rotate(0 0.8828825370613345 -21.000030517578125)"><path d="M-6.55 -22.33 C-4.35 -27.72, -3.48 -32.28, 0.99 -41.95 M-6.55 -22.33 C-3.7 -30.07, -0.94 -37.67, 0.99 -41.95" stroke="#868e96" stroke-width="2" fill="none"></path></g></g><mask></mask><g stroke-linecap="round"><g transform="translate(106.873891031938 209.5) rotate(0 0.6286056796042203 20.5)"><path d="M0.03 -0.19 C0.24 6.66, 0.85 33.99, 1.1 40.88 M-0.61 -0.76 C-0.48 6.19, 0.26 34.42, 0.59 41.52" stroke="#868e96" stroke-width="2" fill="none"></path></g><g transform="translate(106.873891031938 209.5) rotate(0 0.6286056796042203 20.5)"><path d="M-7.09 22.5 C-5.35 27.46, -3.11 33.52, 0.59 41.52 M-7.09 22.5 C-4.65 28.8, -1.81 34.51, 0.59 41.52" stroke="#868e96" stroke-width="2" fill="none"></path></g><g transform="translate(106.873891031938 209.5) rotate(0 0.6286056796042203 20.5)"><path d="M6.93 22.01 C4.8 27.11, 3.17 33.31, 0.59 41.52 M6.93 22.01 C4.82 28.51, 3.11 34.38, 0.59 41.52" stroke="#868e96" stroke-width="2" fill="none"></path></g></g><mask></mask><g stroke-linecap="round" transform="translate(224 214.1666717529297) rotate(0 93.66665649414062 58.66667175292969)"><path d="M29.33 0 C60.98 -0.66, 88.96 2.18, 158 0 C174.42 3.29, 185.25 9.56, 187.33 29.33 C187.26 50.43, 189.81 73.15, 187.33 88 C189.31 108.57, 176.71 114.61, 158 117.33 C104.58 119.14, 58.69 119.6, 29.33 117.33 C8.76 113.96, -2.41 105.25, 0 88 C-0.02 65.97, -1.18 43.99, 0 29.33 C-3.1 9.14, 8.5 2.8, 29.33 0" stroke="none" stroke-width="0" fill="#a5d8ff"></path><path d="M29.33 0 C72.5 2.28, 117.11 -0.64, 158 0 M29.33 0 C62.42 -0.54, 96.25 -1.35, 158 0 M158 0 C176.84 1.38, 188.44 9.04, 187.33 29.33 M158 0 C176.9 -1.08, 185.39 11.67, 187.33 29.33 M187.33 29.33 C185.89 44.66, 185.44 56.63, 187.33 88 M187.33 29.33 C188.03 43.2, 187.07 58.53, 187.33 88 M187.33 88 C187.71 109.46, 176.33 118.59, 158 117.33 M187.33 88 C187.56 108.34, 178.59 118.43, 158 117.33 M158 117.33 C123.2 115.93, 90.41 117.25, 29.33 117.33 M158 117.33 C132.04 117.23, 105.22 117.72, 29.33 117.33 M29.33 117.33 C7.81 116.8, 0.79 105.75, 0 88 M29.33 117.33 C11.58 115.84, 1.49 107.79, 0 88 M0 88 C2.36 74.54, -0.81 63.41, 0 29.33 M0 88 C0.4 65.78, 0.43 41.5, 0 29.33 M0 29.33 C0.81 10.55, 8.9 -1.3, 29.33 0 M0 29.33 C2.03 11.91, 10.63 0.52, 29.33 0" stroke="#1e1e1e" stroke-width="2" fill="none"></path></g><g transform="translate(255.99981689453125 233.50001525878906) rotate(0 55.76995086669922 37.5)"><text x="55.76995086669922" y="17.52" font-family="Virgil, Segoe UI Emoji" font-size="20px" fill="#1e1e1e" text-anchor="middle" style="white-space: pre;" direction="ltr" dominant-baseline="alphabetic">Succint</text><text x="55.76995086669922" y="42.519999999999996" font-family="Virgil, Segoe UI Emoji" font-size="20px" fill="#1e1e1e" text-anchor="middle" style="white-space: pre;" direction="ltr" dominant-baseline="alphabetic">Interactive</text><text x="55.76995086669922" y="67.52" font-family="Virgil, Segoe UI Emoji" font-size="20px" fill="#1e1e1e" text-anchor="middle" style="white-space: pre;" direction="ltr" dominant-baseline="alphabetic">Argument</text></g><g stroke-linecap="round"><g transform="translate(119.91671752929688 276.2799287093834) rotate(0 48.541656494140625 -1.4811911708629282)"><path d="M0.1 -0.1 C15.9 -0.7, 79.59 -2.69, 95.92 -3.06 M-1.31 -1.2 C14.74 -1.64, 81.49 -1.05, 98.02 -1.58" stroke="#868e96" stroke-width="2" fill="none"></path></g><g transform="translate(119.91671752929688 276.2799287093834) rotate(0 48.541656494140625 -1.4811911708629282)"><path d="M74.61 7.18 C83.63 1.78, 92.85 1.98, 98.02 -1.58 M74.61 7.18 C81.92 4.96, 90.92 1.63, 98.02 -1.58" stroke="#868e96" stroke-width="2" fill="none"></path></g><g transform="translate(119.91671752929688 276.2799287093834) rotate(0 48.541656494140625 -1.4811911708629282)"><path d="M74.46 -9.92 C83.61 -8.59, 92.89 -1.65, 98.02 -1.58 M74.46 -9.92 C81.83 -6.11, 90.89 -3.42, 98.02 -1.58" stroke="#868e96" stroke-width="2" fill="none"></path></g></g><mask></mask><g stroke-linecap="round" transform="translate(406.0001220703125 386.16664123535156) rotate(0 96.66665649414062 26.333358764648438)"><path d="M13.17 0 C82.7 2.06, 145.92 4.6, 180.17 0 C192.34 3.16, 193.17 5.07, 193.33 13.17 C195.37 18.09, 194.6 27.34, 193.33 39.5 C191.35 50.18, 187.08 55.71, 180.17 52.67 C142.31 48.34, 105.55 53.39, 13.17 52.67 C2.1 55.93, 3.5 50.78, 0 39.5 C2.94 30.75, 1.26 19.09, 0 13.17 C3.1 1.23, 7.55 -0.42, 13.17 0" stroke="none" stroke-width="0" fill="#f3f0ff"></path><path d="M13.17 0 C57.44 -0.56, 104.86 -2.12, 180.17 0 M13.17 0 C74.16 -0.85, 135.56 -2.01, 180.17 0 M180.17 0 C187.91 0.55, 195.32 4.51, 193.33 13.17 M180.17 0 C189.47 2.25, 192.72 2.58, 193.33 13.17 M193.33 13.17 C194.19 22.28, 193.9 29.87, 193.33 39.5 M193.33 13.17 C193.31 18.34, 192.94 24.9, 193.33 39.5 M193.33 39.5 C191.4 50.03, 190.28 52.27, 180.17 52.67 M193.33 39.5 C194.3 46.49, 190.86 52.4, 180.17 52.67 M180.17 52.67 C127.55 53.19, 70.29 53.86, 13.17 52.67 M180.17 52.67 C129.67 53.2, 77.51 53.35, 13.17 52.67 M13.17 52.67 C3.68 53.72, -0.9 49.12, 0 39.5 M13.17 52.67 C4.77 51.52, -1.66 46.69, 0 39.5 M0 39.5 C1.5 32.28, -1.21 28.22, 0 13.17 M0 39.5 C-0.86 29.77, 0.96 18.96, 0 13.17 M0 13.17 C-0.71 3.54, 5.03 -1.81, 13.17 0 M0 13.17 C2.15 4.1, 6.01 -1.01, 13.17 0" stroke="#1e1e1e" stroke-width="2" fill="none"></path></g><g transform="translate(445.33331298828125 400.16673278808594) rotate(0 54.86994934082031 12.5)"><text x="0" y="17.52" font-family="Virgil, Segoe UI Emoji" font-size="20px" fill="#1e1e1e" text-anchor="start" style="white-space: pre;" direction="ltr" dominant-baseline="alphabetic">Fiat-Shamir</text></g><g stroke-linecap="round"><g transform="translate(414.25006103515625 266.0742086125777) rotate(0 38.20586912578642 56.71292621128927)"><path d="M0.54 1.16 C13.25 19.93, 63.96 93.94, 76.54 112.75 M-0.64 0.72 C11.9 19.63, 63.04 95.39, 75.65 113.93" stroke="#868e96" stroke-width="2" fill="none"></path></g><g transform="translate(414.25006103515625 266.0742086125777) rotate(0 38.20586912578642 56.71292621128927)"><path d="M55.4 99.27 C63.89 104.13, 67.4 107.99, 75.65 113.93 M55.4 99.27 C62.07 105.55, 69.14 108.8, 75.65 113.93" stroke="#868e96" stroke-width="2" fill="none"></path></g><g transform="translate(414.25006103515625 266.0742086125777) rotate(0 38.20586912578642 56.71292621128927)"><path d="M69.56 89.69 C73.48 97.71, 72.4 104.67, 75.65 113.93 M69.56 89.69 C71.37 99.16, 73.52 105.74, 75.65 113.93" stroke="#868e96" stroke-width="2" fill="none"></path></g></g><mask></mask><g stroke-linecap="round" transform="translate(611.000244140625 199.8333282470703) rotate(0 89.99996948242188 57.66670227050781)"><path d="M28.83 0 C55.76 -0.26, 84.36 2.94, 151.17 0 C166.8 -0.19, 183.53 9.94, 180 28.83 C178.89 51.6, 181.37 73.15, 180 86.5 C181.83 103.41, 170.81 113.37, 151.17 115.33 C117.11 113.44, 85.93 115.73, 28.83 115.33 C6.04 114.47, -1.01 105.68, 0 86.5 C-1.01 63.54, -0.63 44.14, 0 28.83 C-1.48 11.25, 9.26 -2.64, 28.83 0" stroke="none" stroke-width="0" fill="#4dabf7"></path><path d="M28.83 0 C67.89 0.16, 108.65 1.23, 151.17 0 M28.83 0 C63.81 1.85, 98.52 1.29, 151.17 0 M151.17 0 C169.85 -1.05, 179.64 10.67, 180 28.83 M151.17 0 C171.17 1.72, 181.03 10.13, 180 28.83 M180 28.83 C178.21 44.88, 181.27 59.92, 180 86.5 M180 28.83 C179.01 48.17, 178.96 69.02, 180 86.5 M180 86.5 C178.68 103.98, 170.96 114.37, 151.17 115.33 M180 86.5 C178.63 107.02, 172.08 113.43, 151.17 115.33 M151.17 115.33 C106.03 115.94, 61.22 115.4, 28.83 115.33 M151.17 115.33 C107.49 114.66, 65.24 114.79, 28.83 115.33 M28.83 115.33 C9.06 114.76, -1.44 106.45, 0 86.5 M28.83 115.33 C11.54 116.04, 1.36 106.86, 0 86.5 M0 86.5 C1.36 68.08, 0.43 54.24, 0 28.83 M0 86.5 C-0.57 70.77, 0.17 53.49, 0 28.83 M0 28.83 C0.48 9.07, 10.75 0.49, 28.83 0 M0 28.83 C-0.23 10.19, 11.62 2.18, 28.83 0" stroke="#1e1e1e" stroke-width="2" fill="none"></path></g><g transform="translate(669.5626525878906 234.16671752929688) rotate(0 23.4375 9.599999999999994)"><text x="23.4375" y="15.45" font-family="Cascadia, Segoe UI Emoji" font-size="16px" fill="#1e1e1e" text-anchor="middle" style="white-space: pre;" direction="ltr" dominant-baseline="alphabetic">SNARK</text></g><g stroke-linecap="round"><g transform="translate(504.961338485072 371.36053501043534) rotate(0 46.31050770980312 -51.61757663314188)"><path d="M1.08 1.02 C16.71 -16.04, 78.5 -85.79, 93.66 -103.12 M0.19 0.51 C15.76 -16.27, 78.12 -84.52, 93.25 -101.52" stroke="#868e96" stroke-width="2" fill="none"></path></g><g transform="translate(504.961338485072 371.36053501043534) rotate(0 46.31050770980312 -51.61757663314188)"><path d="M83.84 -78.36 C88.44 -83.47, 89.68 -92.92, 93.25 -101.52 M83.84 -78.36 C86.47 -86.3, 90.35 -93.51, 93.25 -101.52" stroke="#868e96" stroke-width="2" fill="none"></path></g><g transform="translate(504.961338485072 371.36053501043534) rotate(0 46.31050770980312 -51.61757663314188)"><path d="M71.16 -89.82 C79.39 -91.71, 84.33 -97.8, 93.25 -101.52 M71.16 -89.82 C77.81 -94.1, 85.79 -97.6, 93.25 -101.52" stroke="#868e96" stroke-width="2" fill="none"></path></g></g><mask></mask><g transform="translate(214.43377685546875 10) rotate(0 142.001953125 17.5)"><text x="142.001953125" y="24.528" font-family="Virgil, Segoe UI Emoji" font-size="28px" fill="#1e1e1e" text-anchor="middle" style="white-space: pre;" direction="ltr" dominant-baseline="alphabetic">SNARK Design Recap</text></g></svg>